/* XPM */
static char *dbee67398670438ffb6483679ea4874704IyrnND2vy3OczU[] = {
/* columns rows colors chars-per-pixel */
"50 50 47 1 ",
"  c None",
". c #020103",
"X c #0A0101",
"o c #120101",
"O c #150B09",
"+ c #1E0F0D",
"@ c #261513",
"# c #2A1514",
"$ c #271915",
"% c #331F1C",
"& c #34211B",
"* c #3F2726",
"= c #3F2925",
"- c #422822",
"; c #492B23",
": c #523A35",
"> c #5C3C36",
", c #5E3E39",
"< c #66372F",
"1 c #663A2F",
"2 c #6A3A2E",
"3 c #663A31",
"4 c #693932",
"5 c #613C3B",
"6 c #6C3D39",
"7 c #703A30",
"8 c #6F423C",
"9 c #6C4B39",
"0 c #744537",
"q c #7B4435",
"w c #72433E",
"e c #7E4C3A",
"r c #585858",
"t c #6D4441",
"y c #724441",
"u c #804A37",
"i c #824B38",
"p c #8E563C",
"a c #8B583C",
"s c #925536",
"d c #91553C",
"f c #8D5641",
"g c #865944",
"h c #885842",
"j c #855949",
"k c gray89",
"l c gray98",
/* pixels */
"                                                  ",
"                                                  ",
"                                                  ",
"                                                  ",
"                                                  ",
"                                                  ",
"                                                  ",
"                                                  ",
"     kl                                           ",
"     rjgghgggghhhhhghggghhgggfggj.                ",
"     .psdapdddppdpfdddddpddddddpfX                ",
"     .ph..X....X...X...........pf.                ",
"     .pp.&3353356545354433333%OafX                ",
"     .pdX8wffffpfffffff4y33338$af.                ",
"      pfXfdpppppddddddpppy3331@af.                ",
"      apXfdgjjjgggggggjfdy3333@pf.                ",
"      ppXap..:>>>>>>,..9pw4413@pf.                ",
"      pfXfsh%,1433333.2aay4413$pf.                ",
"      apXapd;.....X.X.dday8333@ah.                ",
"      ppXasppddddddpdddpsy11330@$.                ",
"      paX67dppsppdddspsq653333348.                ",
"      pp.34wywwwywywwwww431333e.X.                ",
"      apX433331333333333333334@af.                ",
"      paX433333333333333333334@af.                ",
"      ppX433333314333433333313@pf.                ",
"      ppX433333133313133333313@pf.                ",
"      ppX313333333333313333333@pd.                ",
"      apX333333333333133143113@af.                ",
"      ppX333331113333413133343eX..                ",
"      ppX333333433313333433343333.                ",
"      ppX###$#%#31431333333331335.                ",
"      pa.jfpaafy91433333133333334.                ",
"      ap.jfsfsfj,3333333313313uXX.                ",
"      dpXX.g.j.o43333331333434@pa.                ",
"      daX3,X.X,133433333131333@af.                ",
"      paX435>3<113313333333334@af.                ",
"      ppX333333333333333333313@pf.                ",
"      paX333433313333314333313@pf.                ",
"      ppX333343433333133333314$af.                ",
"      pp.333333341333313143114iXX.                ",
"      ppX433333333333333313341135.                ",
"      ppX3331333333133333333<3316.                ",
"      adX333131331311331333343@...                ",
"      da.,33333333333333133333eX.X                ",
"      pdO.*=-----=----------*.$ap.                ",
"     .pdghhfghhhaggfagfghhhhajgpp.                ",
"     .apppppaspdpsasppsasppsadppf.                ",
"      ...........................                 ",
"                                                  ",
"                                                  "
};
