/* XPM */
static char *_ccb0320dfb9484591d0c4a4b4321e27OtskFnH0EZciRftW[] = {
/* columns rows colors chars-per-pixel */
"50 50 48 1 ",
"  c #192124",
". c #192125",
"X c #1B2327",
"o c #1B2328",
"O c #1B2428",
"+ c #1B2429",
"@ c #1D252A",
"# c #1D262B",
"$ c #1F282C",
"% c #212A30",
"& c #212B30",
"* c #263237",
"= c #253138",
"- c #253238",
"; c #263338",
": c #27333A",
"> c #26333B",
", c #27343B",
"< c #27343C",
"1 c #28333A",
"2 c #283439",
"3 c #28363B",
"4 c #28343C",
"5 c #2A373D",
"6 c #2A373E",
"7 c #2B373E",
"8 c #2B393F",
"9 c #2C393F",
"0 c #2B3840",
"q c #2C3A40",
"w c #2C3A42",
"e c #2D3B42",
"r c #2D3B43",
"t c #2F3B43",
"y c #2E3C43",
"u c #2F3E45",
"i c #303D44",
"p c #303E44",
"a c #313E45",
"s c #313F47",
"d c #314047",
"f c #324149",
"g c #33424A",
"h c #34424A",
"j c #37474F",
"k c #3E515A",
"l c #5E6B71",
"z c #878D8F",
/* pixels */
"aaefhu63j31eaj60u46,68fzzll%66366i86yafy8jff6afaff",
"aayffa33j366aj66u;6;66fzzll%366eyi66yff8ejff6ffaff",
"jjeffaay6ee49e66;ee6;18zzll@66eee3,,jfeffy898669uy",
"666uuehff0efae13*666ay,zzll%116763,,869yua6e6jj*uu",
"666uu8ffde8fi8,61466eu<zzll%;1668,,,388iuu8e6jj;uu",
"jjy9y88y8au8683<61;488ezzll@66uaau996,,36fee68e,;6",
"66j666uuauueefta8;;;6;1zzll@66eaa9eyifj888yef6666,",
",6j668uueuu8afuu8;1<66;zzll@;30aa9eyahj89eaef6663,",
"89yyee;666<fe6;;;<*<4;6zzll@61j;,863yiddai9993,u68",
"66;668ut66660e06<<;6;11zzllXea6e83eeydjyy3eyeeet69",
"68,666ta06660e686;4<;;;zzllXea6683yeydjye,yyeiet6e",
"36*,64;;*jj<,6;<;64s;16zzllote168y,8iidyy8,8jds6<;",
"3613611;6uu66666<,3946,zzll@08;6,888008ey8;1aeee66",
"3366011;666e0e8e6,1366;zzll%336;,<6,<;69831;066e06",
"66aee;16e66;<0;;61;*<;0zzll%689686te0ee886;46;4;e6",
"36eee131e6,;664<e*11<;ezzll%ee86<0tu088886<<6;;16e",
"66ee8898e<6esf;6*uy6;;4zzllo661ty,88dy,88,,,fue;36",
"66a609,8967ee1e81666=<=zzll.;;0uu<,,88y00f;,e;6eee",
"66yee6<,606e660e,6<64;=zzll.;;6uu6,,06809f3;86;eie",
"eeuff68010e6e798;***;*;zzll.4;;ey6jjy8,,;3,6eee8hd",
"31e3<<86;4;ie6ffe*;1jj4zzllX06;06868yyyye1eeeff8ya",
"33a66<664;;t0<ff6*;;jj;zzll.66=6886,yy0066aeeffyy9",
"uu61<t0tj<<<<606e66;<61zzllX;11688dy8afuey31eiia99",
"zzzzzzzzzzzzzzzzzzzzzzzzzlllllllllllllllllllllllll",
"zzzzzzzzzzzzzzzzzzzzzzzzzlllllllllllllllllllllllll",
"lllllllllllllllllllllllllkkkkkkkkkkkkkkkkkkkkkkkkk",
"lllllllllllllllllllllllllkkkkkkkkkkkkkkkkkkkkkkkkk",
"@%oo+%oo@XXoooooXXXXXX@llkk    Xo@oo@$$+++&&+$$$@@",
"663683eef6;6ea66*<68,8;llkk+%;jaejaueefe9*66;0<fyy",
"e63633eaa366ea60;;,668;llkko;1jtujuu9ah9y,8,660fyy",
"66;663;636686;1;*1366,<llkk$60<686ff906ee66,8883*3",
"1;9*1e98688<60;6*;16<,<llkk+;;6tu<faue616e3;f88hfa",
"6;0;;e66600;06<;*;1t0<6llkk@,;6ey3dfa86<4t11f6efff",
"66eeea66,66ae6ee3;;%;;fllkkX886ey8ffe6;;;e63666966",
";4;631ff360eea6ey861<<,llkk y988yfiy666606eue1;e76",
"4;;,3;ff366aaae6i6130<;llkk ye6eyhyi666;<6ee64166e",
";4;e86868eea66**666i966llkkX;;*88,9yy86688<;etutue",
"41166e,,6e8961*11e8e366llkk@;<8yy,9993666y<;7aefaf",
"6,61;u;*;0e16113;aa6;<6llkk%4<sfd,yy33366u86,uafjj",
"66;3<<46;ae6;3fa0<66jjellkkX6<0088,,*331;8aydyu06e",
"<0;4613,<et<<,df886,jj7llkkX66666e4;;;3168eatta0e6",
"90t;;;6,4;;6<;e9y,;,68;llkk.6663;0ss;1;00;61asfj66",
"aa;06u66<ea61*660<,8,,3llkkX640et<16;1;4;;4180utjj",
"aa<66e666ue03;668,8y863llkk@46eee<6;*;*3<4;=9eeujj",
"ayy8e;666ee66666;ut0ee6llkk@1;0ety883;;<;*6;83,yjj",
"yy6868;41;*3;166660u3<fllkk%46<et<,8y961<e66fy9yjj",
"ey,866,64;;111676e8a33fllkk%64;ee6,8e963;t63fayyjj",
"e8d898uee;;36,66;66a76ellkk@jj;e9j;,39e,8<3*3333jj",
"6,6ff8eeueaaueeeeiu6eeallkk$88e69ee6166ff734fjj8jj",
"686af8eeaeeaieeeeua6eeillkk$e988ee99366hfe1;hjj8jj"
};
