/* XPM */
static char *_f2a7a2f0b834d34c7868cc3df1242a500fNoCpgiIcp7CFE[] = {
/* columns rows colors chars-per-pixel */
"50 50 144 2 ",
"   c None",
".  c #000101",
"X  c #000608",
"o  c #000B0D",
"O  c #0A0A0A",
"+  c #000E11",
"@  c #001013",
"#  c #00191B",
"$  c #1D1D1D",
"%  c #001D23",
"&  c #002125",
"*  c #03242A",
"=  c #012B2F",
"-  c #012E36",
";  c #0A2F33",
":  c #07363C",
">  c #0D3438",
",  c #08383D",
"<  c #2D2D2D",
"1  c #373737",
"2  c #3B3B3B",
"3  c #003E44",
"4  c #033E48",
"5  c #004146",
"6  c #02424A",
"7  c #004950",
"8  c #0D5057",
"9  c #264B51",
"0  c #28545A",
"q  c #0F5964",
"w  c #0A626F",
"e  c #006771",
"r  c #096271",
"t  c #0A6871",
"y  c #136770",
"u  c #146C73",
"i  c #196A71",
"p  c #436469",
"a  c #597679",
"s  c #0D7D8C",
"d  c #127783",
"f  c #127A85",
"g  c #2C7A85",
"h  c #1B828D",
"j  c #088290",
"k  c #1A8695",
"l  c #37888E",
"z  c #38888F",
"x  c #2B8F9B",
"c  c #1E95A1",
"v  c #139BA7",
"b  c #1997A9",
"n  c #159BAE",
"m  c #0E9FB2",
"M  c #199FB0",
"N  c #2592A1",
"B  c #319AA8",
"V  c #1CAABE",
"C  c #2AA2AE",
"Z  c #26A5B7",
"A  c #2FA6B2",
"S  c #2FAAB5",
"D  c #30AAB5",
"F  c #3DADB6",
"G  c #27B2BE",
"H  c #28B1BE",
"J  c #40AEB7",
"K  c #54B2B9",
"L  c #51B8BF",
"P  c #13ADC3",
"I  c #0BB1C6",
"U  c #0AB6CD",
"Y  c #09B9CE",
"T  c #1EB2C2",
"R  c #01BBD4",
"E  c #00BFD8",
"W  c #21B6C5",
"Q  c #24BDC9",
"!  c #0BC5D7",
"~  c #01C2DB",
"^  c #09CADE",
"/  c #14C1D4",
"(  c #1CC0D3",
")  c #26C7D5",
"_  c #24CAD7",
"`  c #32C9D7",
"'  c #02CDE4",
"]  c #00CFE9",
"[  c #00D0E7",
"{  c #0FD1E5",
"}  c #02D3EA",
"|  c #0FD6EA",
" . c #0BDCF2",
".. c #10DBF0",
"X. c #2DDBEB",
"o. c #3EDEEB",
"O. c #10E3F6",
"+. c #11E3F8",
"@. c #1FE7F9",
"#. c #15E8FC",
"$. c #18EBFE",
"%. c #23E6F7",
"&. c #29E4F4",
"*. c #20E6F9",
"=. c #25E9FB",
"-. c #2BEDFD",
";. c #32EFFD",
":. c #5BC6CE",
">. c #52CFD9",
",. c #50D1DB",
"<. c #5DD2DA",
"1. c #61C3CB",
"2. c #64CAD2",
"3. c #61D0D8",
"4. c #63D9E0",
"5. c #5DE3EE",
"6. c #54E6F0",
"7. c #5EE7F3",
"8. c #55EBF6",
"9. c #5BEAF5",
"0. c #57EDF8",
"q. c #55EEF9",
"w. c #57EDFA",
"e. c #56ECFA",
"r. c #55EEFA",
"t. c #54EEFB",
"y. c #56EEFA",
"u. c #54EDF8",
"i. c #53EEFA",
"p. c #4AF3FF",
"a. c #4BF3FF",
"s. c #4EF2FC",
"d. c #4EF1FE",
"f. c #4FF1FE",
"g. c #4EF1FF",
"h. c #4CF2FE",
"j. c #4DF2FE",
"k. c #4EF2FE",
"l. c #48F4FF",
"z. c #4EF2FE",
"x. c #65E2EB",
"c. c #63E3ED",
"v. c #62E4EC",
"b. c #62E4ED",
/* pixels */
"                                                                                                    ",
"                                                                                                    ",
"                                        $ . . . . . . . . O                                         ",
"                                O O O O x Z Z Z Z Z Z Z Z B O O O O                                 ",
"                                . . . . m R R R R R R R R P . . . .                                 ",
"                          . . . . . X E ] [ [ [ [ [ [ [ ] ] R X . . . . .                           ",
"                      2 9 s s f . . X ~ ..O.O.O.O.O.O.O.O.O.' X . . d s s 0 2                       ",
"                      . % R R U . . X ] #.$.$.$.#.$.$.$.$.#.] X . . I R R - .                       ",
"                    . R R R ] ^ . . . . ) $.$.#.$.$.$.$.$.X.. . . . ! ] R R R .                     ",
"                  a 4 R E ~ | | 8 X . . ` -.-.-.-.-.-.-.-.o.. . X 8 {  .~ R R 6 p                   ",
"                . 6 R R E ] $.$.$.+ . . ,.f.k.k.k.k.k.k.k.5.. . + $.$.#.] ~ R R q .                 ",
"            2 . Y R R ' } $.$.$.$.@ . . . . k.k.k.k.k.k.. . . . o $.$.$.#.} [ R R R . O             ",
"            1 . M M M W T ` ` ` ` o . . . . <.<.<.<.<.<.. . . . o ` ` ` ` W W M M M . O             ",
"          . . . . . . . . . . . . . . . . . . . . . . . . . . . . . . . . . . . . . . . .           ",
"          . . . . . . . . . . . . . . . . . . . . . . . . . . . . . . . . . . . . . . . .           ",
"          X . . . . . . . X X X X X X X X X X X X X X X X X X X X X X X X . . . . . . . X           ",
"      O X R 4 . . . . . & k.k.k.k.k.k.k.k.k.k.k.k.k.k.k.k.k.k.k.k.k.k.k.k., . . . . . * R . O       ",
"      O . E Y Q . . . x.2.o + @ k.k.k.k.k.k.k.k.k.k.k.k.k.k.k.k.k.k.# + + K c.. . . ) Y R X O       ",
"      O X R ' ' . . . 9.3.X . o w.w.0.w.w.w.w.w.w.w.w.w.w.w.w.w.0.0.o X X L 9.. . . ] ' R . O       ",
"      O . R ' } . . . . & k.k.8.. . . . . . . . . . . . . . . . . . 6.k.k., . . . . ] ' R . O       ",
"    $ x m '  .#.) h . . & k.k.8.. 1.>.>.>.>.>.>.>.>.>.>.>.>.>.>.:.. 6.k.k., . . y ) #.+.] m N $     ",
"    . Z R [ O.$.$.v . . % k.k.8.. v.a.k.k.k.k.k.k.k.k.k.k.k.k.k.7.. 6.k.s., . . f $.$.#.] R V .     ",
"    . Z R [ +.$.$.v . . . . w.u.. v.k.k.k.k.k.k.k.k.k.k.k.k.k.k.7.. 6.i.. . . . f $.$.#.] R V .     ",
"    . Z R ] +.$.$._ l . . . i.i.l i i k.k.k.k.k.k.k.k.k.k.k.k.u i l i.w.. . . l Q $.$.#.[ R V .     ",
"    . Z R [ O.$.$.-.k.. . . 8.k.k.o X k.k.k.k.k.k.k.k.k.k.k.k.X o k.k.t.. . . k.;.$.#.#.] R V .     ",
"    . Z R ] +.$.$.-.k.. . . . X k.+ . k.k.k.k.k.k.k.k.k.k.k.s.X o k.o . . . . k.;.$.$.#.[ R V .     ",
"    . g k N C D D F K . . . . X k.7 5 K 6.k.k.k.k.k.k.k.k.8.K 5 6 k.o . . . . K J D D A c k g .     ",
"    . . . . . . . . . . . . . X k.k.8.. ,.a.k.k.k.k.k.k.k.5.. 9.k.k.o . . . . . . . . . . . . .     ",
"    . . . . . . . . . . . . . . . b.0.. ,.k.k.k.k.k.k.k.k.5.. 9.9.. . . . . . . . . . . . . . .     ",
"    O . . + + + @ @ + + + + . . . b.w.+ :.5.k.k.k.k.k.k.5.4.@ 9.7.. . . + + + @ @ + + + + . . O     ",
"      O . R ' ] $.$.$.k.k.k.. . . v.k.k.& . k.k.k.k.k.k.. + k.k.7.. . . k.k.z.$.$.$.[ ' R X O       ",
"      O . R ' ] #.$.$.k.k.k.X . . X o k.* . k.k.k.k.k.k.. + k.o X . . . f.k.f.#.$.$.] ' R . O       ",
"      O . R ' ] #.$.$.l.l.k.@ o . . X k.= o 9.w.k.k.8.9.o # k.X . . o o k.k.l.$.$.$.[ ' R X O       ",
"      O X R ' ' } | $.$.*.k.k.8.. . . k.s.s.. z k.k.K . k.k.k.X . . 6.k.k.-.#.$. .[ ] ' R . O       ",
"          o j R ]  .$.$.$.@.@ o . . . o ,.s.. z k.k.K . k.5.o . . . o + $.$.$.$. .[ E n o           ",
"          . s R ] | $.$.$.@.X . . . . . >.s.. l i.i.K . k.5.. . . . . X @.$.$.#. .} R b .           ",
"          . s R R ~ ] $.` . . . . . . . >.k.k.i . . 3 k.k.5.. . . . . . . H #.} ~ R E b .           ",
"            0 - R E E 3 - . . X G o . . ; , k.i . . 5 k., > . . X G o . . = , ~ E R - :             ",
"            2 . R R R . . . . X $.+ . . . . k.i . . 3 k.. . . . o $.+ . . . . R R R . O             ",
"                . . . . . . %.$.$.$.%.. . . k.i . . 3 k.. . . &.$.$.$.*.. . . . . .                 ",
"                  2 . . + r .. . .#.%.. . . ;.t . . 5 ;.. . . &.$. . ...r # . . <                   ",
"                    . . % R ] } ] #.%.. . . $.e . . 6 $.. . . &.$.[ ] ' R - . .                     ",
"                      . % E R R ] ] ] ' & . . . . . . . . + ] ] [ [ E R R - .                       ",
"                      O * b b b ' ^ ' ' & . . . . . . . . + ' ' ' ' n b b : O                       ",
"                          . . X R R R R % . . . . . . . . + R R R E o . .                           ",
"                                . . X X n Y . . . . . . R V X . . .                                 ",
"                                O O O O N V . . . . . . V B O O O O                                 ",
"                                        $ . . . . . . . . O                                         ",
"                                                                                                    ",
"                                                                                                    "
};
