/* XPM */
static char *_bc2a1b417c44a1fca22ac02153834c5tkQMLdNaZ5YHksVH[] = {
/* columns rows colors chars-per-pixel */
"45 58 155 2 ",
"   c None",
".  c black",
"X  c #000100",
"o  c #010100",
"O  c #000101",
"+  c #010101",
"@  c #030000",
"#  c #020100",
"$  c #020001",
"%  c #010200",
"&  c #020300",
"*  c #020201",
"=  c #030201",
"-  c #000002",
";  c #000102",
":  c #020003",
">  c #030003",
",  c #010202",
"<  c #010203",
"1  c #020202",
"2  c gray1",
"3  c #040000",
"4  c #030403",
"5  c #010105",
"6  c #020104",
"7  c #020205",
"8  c #000006",
"9  c #010206",
"0  c gray2",
"q  c #080101",
"w  c #0A0000",
"e  c #0D0001",
"r  c #0D0002",
"t  c #0B0704",
"y  c #0B0C03",
"u  c #0C0C01",
"i  c #080804",
"p  c gray3",
"a  c #0A0D0E",
"s  c #0C0C0C",
"d  c #180101",
"f  c #111111",
"g  c #181818",
"h  c #191919",
"j  c gray10",
"k  c #1B1B1B",
"l  c #1B1B1C",
"z  c #250102",
"x  c #260003",
"c  c #2A0200",
"v  c #360002",
"b  c #370002",
"n  c #3B3A04",
"m  c #590102",
"M  c #5D0104",
"N  c #600104",
"B  c #700103",
"V  c #7E0205",
"C  c #7D0306",
"Z  c #7D070D",
"A  c #8B0103",
"S  c #8D0004",
"D  c #8D0106",
"F  c #8C0007",
"G  c #A30305",
"H  c #A60107",
"J  c #B00202",
"K  c #BF0004",
"L  c #C40104",
"P  c #C60006",
"I  c #CA0609",
"U  c #D90107",
"Y  c #DE0009",
"T  c #EA000A",
"R  c #F10305",
"E  c #F00107",
"W  c #F20106",
"Q  c #F20207",
"!  c #FA0103",
"~  c #FB0205",
"^  c #F90306",
"/  c #FB0306",
"(  c #FB0307",
")  c #FE0104",
"_  c #FE0005",
"`  c #FC0006",
"'  c #FC0106",
"]  c #FC0007",
"[  c #FD0107",
"{  c #FE0006",
"}  c #FF0106",
"|  c #FF0107",
" . c #FB0405",
".. c #FA0C03",
"X. c #FA0D04",
"o. c #F10109",
"O. c #F30208",
"+. c #F0020A",
"@. c #FB0008",
"#. c #FB0209",
"$. c #FE0008",
"%. c #FF0008",
"&. c #FE0108",
"*. c #FF0009",
"=. c #FC0309",
"-. c #FE0209",
";. c #FC010A",
":. c #FF000B",
">. c #FF010C",
",. c #F51003",
"<. c #FF3606",
"1. c #FF3706",
"2. c #FF3707",
"3. c #8C8702",
"4. c #A19D02",
"5. c #A5A100",
"6. c #FC8902",
"7. c #FE8802",
"8. c #FD8804",
"9. c #C3BE01",
"0. c #CABD00",
"q. c #FEA104",
"w. c #DBD605",
"e. c #FED003",
"r. c #FBD502",
"t. c #FDD702",
"y. c #F4EB02",
"u. c #F4EB03",
"i. c #F2EF00",
"p. c #F1EF07",
"a. c #FDE801",
"s. c #FDEB03",
"d. c #FDEB04",
"f. c #F9F302",
"g. c #FBF700",
"h. c #FFF501",
"j. c #FDF701",
"k. c #FEF700",
"l. c #FFF700",
"z. c #FEF601",
"x. c #FFF601",
"c. c #FFF701",
"v. c #FEF604",
"b. c #FEF704",
"n. c #FBFA00",
"m. c #FDF800",
"M. c #FDF901",
"N. c #FFF800",
"B. c #FEF801",
"V. c #FFF801",
"C. c #FEF901",
"Z. c #FDF802",
"A. c #FEF903",
"S. c gainsboro",
"D. c white",
/* pixels */
"                                                                                          ",
"                                                                                          ",
"                                                                                          ",
"                                      . . . . . .                                         ",
"                                      d d d d d d                                         ",
"                        . . . . . . z | *.*.*.| *.. . . . . . .                           ",
"                        & . . . & . z *.| *.| *.| . & . . . . &                           ",
"                    . . | *.*.| *.| *.| *.| *.| | *.*.| *.| *.~ . .                       ",
"                    . . *.| *.*.*.| *.| *.| *.| *.| | *.| *.| ! . .                       ",
"                . . *.*.l.l.l.l.1.*.| *.| *.| *.| *.*.d.l.l.l.B.| *.. .                   ",
"                . . | *.l.l.l.l.1.| *.| *.| *.| *.| *.s.l.l.l.B.*.| . .                   ",
"                . . *.| l.l.l.l.1.*.| *.| *.| *.| *.| s.l.l.B.B.| *.. .                   ",
"                . 3 *.| l.l.l.l.1.*.*.| *.| *.| *.*.*.s.l.l.l.B.*.| . .                   ",
"                . . | *.l.l.l.l.g.l.r.*.| *.| *.| l.l.b.l.l.B.B.| *.. .                   ",
"                . 3 *.*.l.l.l.l.l.l.t.| *.| | *.*.B.l.l.l.l.B.B.| | . .                   ",
"                D D B B l.l.l.l.l.l.a.8.8.8.8.8.8.l.l.l.l.l.l.B.B B D A                   ",
"            . q *.*.. . l.l.B.B.l.l.l.l.l.l.l.l.l.l.B.B.B.l.l.B.. . *.*.& .               ",
"            . q *.*.. . i.i.i.i.i.i.i.i.i.i.i.i.i.i.i.i.i.i.i.p.. . *.*.& .               ",
"            . q *.=.. . . . . . . . . . . . . . . . . . . . . . . . *.| & .               ",
"            . w *.| < . . . . . . . . . . . . . . . . . . < . . . . | *.& .               ",
"            . 3 | | B.l.            S.. . . . . . D.D.          l.l.*.| . .               ",
"            . w *.| l.l.              . . . . . . D.            l.l.| *.& .               ",
"            . w | | l.l.l.l.l.l.B.l.l.l.l.l.l.l.l.l.l.l.l.l.B.B.l.l.*. .& .               ",
"            . 3 *.| l.l.l.l.l.l.B.B.l.l.l.l.l.l.l.l.l.l.l.l.l.B.l.B.*.*.& .               ",
"                . w *.| l.l.l.l.l.l.l.l.l.l.l.l.l.l.l.l.l.l.l.B.| | . .                   ",
"                . 3 *.| l.l.l.l.l.l.l.l.l.l.l.l.l.l.l.l.l.l.B.B.*.| . .                   ",
"                . . | *.l.l.l.l.l.l.l.l.l.l.l.l.l.l.l.l.l.l.B.B.| *.. .                   ",
"                . . *.*.l.l.l.l.l.l.l.l.l.l.l.l.l.l.l.l.l.B.B.B.*.*.. .                   ",
"                    D F 7.7.B.l.5.3.3.3.3.3.3.3.3.3.3.f.l.e.7.7.D F                       ",
"                    . . | *.b.l.n . . . . . . . . . . u.l.q.*.! . .                       ",
"                    . . *.| b.l.n . . . . . . . . . . u.B.q.| ! . .                       ",
"                        . . . . 9.l.l.l.l.l.l.l.l.l.l.y . . . .                           ",
"                        . . 3 . 0.l.l.l.l.l.l.l.l.l.l.y . . . 3                           ",
"                    . . | | . . L | | | | | | | | | | w . m |  .. .                       ",
"                    . . *.*.> . P *.| *.*.*.| *.| *.| r . m *.~ . .                       ",
"                . . *.*.. . | *.v . . . . . . . . . . W *.H . < *.*.. .                   ",
"                . . *.| . . | | b . . . . . . . . . . W *.H . < *.| . .                   ",
"            . t l.n.B.B.. . ~ *.b . h             . . W | H . < B.B.l.l.< .               ",
"            . i l.l.l.l.. . ~ *.b . j             . . W *.H . < B.l.l.l.< .               ",
"      f a Z +.O...,.l.l.. . ~ *.W +.I s a     a a +.+.*.| H . < B.l...X.+.+.a a           ",
"      0 . V | *.*.| B.l.. . | *.*.| U . .     . . *.| *.*.H . < l.l.*.| *.*.< .           ",
"      0 . V *.| | | 4.4.. . ~ | | *.T M N     M M *.*.| *.H . . 4.4.| *.*.*.. .           ",
"      0 . V *.*.*.*.. . . . ~ *.*.| *.| *.. . *.*.| | *.*.H . . . . *.| *.| . .           ",
"      p . V #.*.~ #.< < . . | *.| *.| *.>.3 3 *.| *.*.*.*.H . . 0 . #.#.~ #.0 3           ",
"            . . . .     . . *.*.*.| *.| *.| *.| *.| *.| *.H . .     . . . .               ",
"            . . . .     < 8  .~ #.| | *.| *.| *.| *.*.~ ~ G < <     . . . .               ",
"                    . . l.l.l.l.1.*.*.| *.| *.| *.| *.s.l.l.l.B.. .                       ",
"                    . . l.l.l.l.1.*.| *.| *.| *.| *.| s.l.l.l.B.. .                       ",
"                    . . *.| b.l.l.l.w.. . . . . . B.B.l.l.q.*.! . .                       ",
"                    . . | *.b.l.l.l.w.. . . . . . B.l.l.l.q.| ! . .                       ",
"                . . . . *.| >.*.v . l             . . +.*.~ *.! . . . .                   ",
"                . . . . | *.*.| v . l             . . W | *.*.! . . . .                   ",
"                . . T Y *.| *.*.b . l             . . W | *.| | Y Y . .                   ",
"                . . #.*.| *.*.*.b . h             . . W *.| | *.*.*.. .                   ",
"                . . K K K K L K c . h             . . J K K L K K K . .                   ",
"                . . . . . . . . . . h             . . . . . . . . . . .                   ",
"                . . . . . . . . . . h             . . . . . . . . . . .                   ",
"                                                                                          "
};
