/* XPM */
static char *_08b05d237a54ab9d2cb2247809950038OKFb8Zxy2FUvTKQ[] = {
/* columns rows colors chars-per-pixel */
"50 50 142 2 ",
"   c None",
".  c #010101",
"X  c #070F05",
"o  c #0A0A02",
"O  c #0F070D",
"+  c #060B0D",
"@  c #0A0A0A",
"#  c #120201",
"$  c #150900",
"%  c #040D10",
"&  c #0C0E12",
"*  c #07061D",
"=  c #3C0500",
"-  c #3D0905",
";  c #262429",
":  c gray14",
">  c #571315",
",  c #511418",
"<  c #671514",
"1  c #6A1415",
"2  c #6C1915",
"3  c #67161A",
"4  c #68161A",
"5  c #601A1C",
"6  c #761416",
"7  c #7C1611",
"8  c #751320",
"9  c #7E2526",
"0  c #7F3435",
"q  c #7D353A",
"w  c #BA2316",
"e  c #B2231F",
"r  c #BA241F",
"t  c #832322",
"y  c #83212A",
"u  c #833536",
"i  c #8A3236",
"p  c #A32425",
"a  c #B72321",
"s  c #B92225",
"d  c #BA2129",
"f  c #CE241F",
"g  c #C21F23",
"h  c #CE2526",
"j  c #C92822",
"k  c #CF242C",
"l  c #D02521",
"z  c #D2242C",
"x  c #C83337",
"c  c #E22F2F",
"v  c #E82E2C",
"b  c #E8312C",
"n  c #E73333",
"m  c #EA3333",
"M  c #E3373D",
"N  c #ED3038",
"B  c #FE3636",
"V  c #FD3A34",
"C  c #F1313C",
"Z  c #FF373B",
"A  c #FE3939",
"S  c #896C0F",
"D  c #8D6A14",
"F  c #826C1B",
"G  c #836A20",
"H  c #CF6318",
"J  c #D0641C",
"K  c #C5721F",
"L  c #D05029",
"P  c #D16B24",
"I  c #EA7A28",
"U  c #F57F28",
"Y  c #FC7F2C",
"T  c #833540",
"R  c #FF3445",
"E  c #FD3C40",
"W  c #BE4446",
"Q  c #C04446",
"!  c #F64141",
"~  c #F94242",
"^  c #F94E42",
"/  c #FC4D48",
"(  c #FF5F5E",
")  c #FC625E",
"_  c #FF5E62",
"`  c #FF5F69",
"'  c #C76265",
"]  c #C76368",
"[  c #FD6161",
"{  c #ED7074",
"}  c #E6A70D",
"|  c #E7A517",
" . c #EAA416",
".. c #E5B716",
"X. c #E6B31B",
"o. c #EFBF1D",
"O. c #F2B716",
"+. c #F4B718",
"@. c #F3BF1E",
"#. c #FB812D",
"$. c #E68437",
"%. c #E48139",
"&. c #FF8E33",
"*. c #F78B3A",
"=. c #F99234",
"-. c #E4B520",
";. c #ECB221",
":. c #FCBE26",
">. c #FDBF2B",
",. c #FDCA17",
"<. c #F4C41F",
"1. c #FCC31D",
"2. c #F4CA1C",
"3. c #FCC91D",
"4. c #FCC421",
"5. c #F5C921",
"6. c #FEC821",
"7. c #F4C529",
"8. c #FBCE28",
"9. c #FCD42E",
"0. c #F6DA33",
"q. c #FED638",
"w. c #E8ED37",
"e. c #F5E53A",
"r. c #FAE33D",
"t. c #F88A40",
"y. c #FD8449",
"u. c #F89C4F",
"i. c #F78F54",
"p. c #FD9C54",
"a. c #F8A449",
"s. c #FBB04B",
"d. c #F9A152",
"f. c #FEDE4C",
"g. c #FFDE5C",
"h. c #F5E442",
"j. c #FCE343",
"k. c #FFE556",
"l. c gray78",
"z. c #C4CFCC",
"x. c #CCCCCC",
"c. c #D0CECF",
/* pixels */
"                                                                                                    ",
"                                                                                                    ",
"                                                                                                    ",
"                                            @ @ @ @ @ @                                             ",
"                                            @ @ @ @ @ @                                             ",
"                                            , > > > > ,                                             ",
"                                      @ @ + ( ) ) ) ) ) @ @ @                                       ",
"                                      @ @ @ _ ) ) ) [ [ @ @ @                                       ",
"                                    : ] ] ' A ~ ~ ~ ~ ! Q W W ;                                     ",
"                                    @ ) ) [ A Z A V V Z V V Z @                                     ",
"                                    + ) [ [ A A A Z A Z A Z V %                                     ",
"                                . q { [ p.g.V A V V v l k.y.Z x 5 .                                 ",
"                                @ u ) [ a.f.V V A V c h j.=.V h 4 @                                 ",
"                                @ u [ [ p.j.R A A A b j r.*.A k 2 @                                 ",
"                                @ u ) r.q.6.4.U A j %.e.8.3.4.k 2 @                                 ",
"                                @ i [ j.9.3.6.Y B z $.r.3.6.6.l 7 @                                 ",
"                                @ T [ e.9.1.6.Y Z z $.q.6.6.6.z 8 @                                 ",
"                              @ [ u.h.5.1.1.1.4.3.4.>.@.4.1.6.} J a &                               ",
"                              @ [ d.r.6.1.4.4.3.6.3.4.4.4.4.3. .H s @                               ",
"                              @ [ d.r.3.7.7.7.7.6.6.7.7.7.7.3. .J s @                               ",
"                              @ [ d.e.3.G O O G 6.6.F @ O F 6. .H s @                               ",
"                              @ [ d.r.3.F O O G 6.6.F O O F 4. .J s @                               ",
"                              @ [ d.e.3.D $ $ D 6.6.D $ $ D 6. .H s @                               ",
"                              @ [ d.e.6.6.6.4.6.6.6.6.3.6.6.6. .J s @                               ",
"                              @ [ d.e.3.6.4.6.6.6.6.6.4.3.4.6. .J s @                               ",
"                              @ [ i.s.8.8.6.3.6.6.6.6.6.6.1.:.I L d @                               ",
"                              @ _ ^ V e.9.1.3.6.6.6.6.6.3.O. .w d s @                               ",
"                              @ _ / V r.9.6.4.4.6.6.3.6.6.O.| r r s @                               ",
"                                - p B r.9.6.4.1.1.1.1.1.6.+. .s 7 =                                 ",
"                                @ y V j.9.3.1.4.1.:.4.@.6.+. .s < +                                 ",
"                                @ 9 Z r.9.,.>.@.@.@.1.1.6.O. .a 1 @                                 ",
"                                @ t V j.9.4.# # # # # # 4.:.+.s < @                                 ",
"                                @ t A e.9.6.@ @ & O + + 6.:.-.r < @                                 ",
"                                @ 9 V w.0.3.* o o o o o 6.<...s 3 @                                 ",
"                                x.  X B *.j.2.5.5.5.5.<.X.P e X                                     ",
"                                    O E &.r.4.3.3.3.3.3.X.K s $                                     ",
"                                    @ A t.e.,.4.4.4.4.7.X.J s @                                     ",
"                                      @ & @ n N N N N N X @ @                                       ",
"                                      @ @ + m m n n n n @ @ @                                       ",
"                                      @ @ + C M M M M M @ @ @                                       ",
"                                      x.x.z.O @ + + + + c.x.x.                                      ",
"                                            @ @ @ @ @ @                                             ",
"                                            @ @ @ @ @ @                                             ",
"                                            x.x.x.x.x.l.                                            ",
"                                                                                                    ",
"                                                                                                    ",
"                                                                                                    ",
"                                                                                                    ",
"                                                                                                    ",
"                                                                                                    "
};
