/* XPM */
static char *f98aef96d4824ef1a182d6a762b7be3aWfK3mIUA5tHpfRBp[] = {
/* columns rows colors chars-per-pixel */
"50 50 147 2 ",
"   c None",
".  c #070707",
"X  c #090500",
"o  c #0D0903",
"O  c #0B0D0D",
"+  c #170D00",
"@  c #180D00",
"#  c #1E1100",
"$  c #0E1214",
"%  c #121313",
"&  c #121719",
"*  c #161B1D",
"=  c #1B1D1E",
"-  c #201200",
";  c #281700",
":  c #2B1800",
">  c #311B00",
",  c #3F2F19",
"<  c #191F21",
"1  c #1B2124",
"2  c #1F2528",
"3  c #162331",
"4  c #232323",
"5  c #212529",
"6  c #232B2E",
"7  c #2C2C2C",
"8  c #252E31",
"9  c #283034",
"0  c #2C353A",
"q  c #2F383D",
"w  c #30393E",
"e  c gray22",
"r  c #432600",
"t  c #472800",
"y  c #482900",
"u  c #402808",
"i  c #522E00",
"p  c #533001",
"a  c #5C3501",
"s  c #653B01",
"d  c #6B3F02",
"f  c #714200",
"g  c #794600",
"h  c #7A4B0A",
"j  c #7B541E",
"k  c #574122",
"l  c #5D482C",
"z  c #49443B",
"x  c #5F503D",
"c  c #785526",
"v  c #61513B",
"b  c #7C613D",
"n  c #1F385D",
"m  c #2F3A40",
"M  c #323D43",
"N  c #103E6F",
"B  c #354047",
"V  c #39464D",
"C  c #37444B",
"Z  c #3E4C54",
"A  c #48565E",
"S  c #46555C",
"D  c #71624F",
"F  c #7E6B4F",
"G  c #6F6455",
"H  c #756755",
"J  c #7F6F59",
"K  c #4B5A62",
"L  c #455263",
"P  c #4F6168",
"I  c #53636C",
"U  c #596B75",
"Y  c #5E727C",
"T  c #786F63",
"R  c #7E7972",
"E  c #817C75",
"W  c #82807E",
"Q  c #2563A5",
"!  c #5C7482",
"~  c #627681",
"^  c #647883",
"/  c #617A89",
"(  c #266DC0",
")  c #2A78D8",
"_  c #337ED7",
"`  c #317DD8",
"'  c #157BE2",
"]  c #197DE3",
"[  c #6B838D",
"{  c #738C97",
"}  c #79949F",
"|  c #7F9BA7",
" . c #3E84D8",
".. c #1E80E5",
"X. c #2283E4",
"o. c #2986E4",
"O. c #2D89E4",
"+. c #2584E9",
"@. c #2987EA",
"#. c #3580E2",
"$. c #3983E6",
"%. c #348DE5",
"&. c #3E87EB",
"*. c #348EEE",
"=. c #3D92E6",
"-. c #388FF0",
";. c #3B92F1",
":. c #4187DA",
">. c #4489DB",
",. c #4189ED",
"<. c #4696E7",
"1. c #4898E8",
"2. c #458DF1",
"3. c #4396F3",
"4. c #4B91F6",
"5. c #4B99F5",
"6. c #4F94F9",
"7. c #4F9BF9",
"8. c #5094F7",
"9. c #549DF5",
"0. c #5295F9",
"q. c #549CFA",
"w. c #599EFB",
"e. c #54A1FB",
"r. c #5CA3FD",
"t. c #62A5FC",
"y. c #68A6FC",
"u. c #67A6F9",
"i. c #77AFFC",
"p. c #79AEFB",
"a. c #7BB2FC",
"s. c #82B4FB",
"d. c #8DBBFC",
"f. c #95BFFC",
"g. c #8FC0FE",
"h. c #9BC3FC",
"j. c #A4C9FD",
"k. c #ACCDFD",
"l. c #B6D4FE",
"z. c #BBD7FD",
"x. c #BDD8FD",
"c. c #C1DCFE",
"v. c #CCE2FF",
"b. c #D4E7FF",
"n. c #D6E8FF",
"m. c #DDECFF",
"M. c #E4F0FF",
/* pixels */
"                                                                                                    ",
"                                                                                                    ",
"                                                X.                                                  ",
"                                              X.                                                    ",
"                                                ..                        o.                        ",
"                                              *.            o.          3.                          ",
"                                  3.          *.    7 %     <.          t.                          ",
"                                  y.        N O 8 ^ ^ I *             1.s.r.                        ",
"                                  f.    $ Z 8 ^ ^ ^ A q q %               3.X.                      ",
"                              +.d.;.  Z Z Z ~ ^ ^ K Z q q q Q   O.*.@.o.X.y.                        ",
"                  w.*.      r.r.    Z Z I ^ ^ ^ q Z Z Z q q q h.9.*.] w.M.@.                        ",
"              o.n.' z.    r.e.  % q Z ~ ^ ^ ^ 6 Z Z Z Z 8 q q 8         0.+.                        ",
"              i.+.  l.r...q.  ! 9 Z ^ ^ ^ ^ 8 Z Z Z Z Z Z < q q O       w.+.                        ",
"            X.r.    X.o.+.  / 6 V / ^ ^ ^ M Z Z Z Z Z Z Z Z 0 q w =     *.]                         ",
"              x.          / 6 q ^ ^ ^ ^ Z Z Z Z Z Z Z Z Z Z Z q q 0     O.]                         ",
"            %.c...      * M 6 ~ ^ ^ ^ Z Z Z Z Z Z Z Z Z Z Z Z V q <     q.O.X.                      ",
"              k.X.    B Z 8 ^ ^ ^ ~ Z Z Z Z Z Z Z Z Z Z Z Z Z Z 6 6 o.m.s.c.i.r.                    ",
"            ..v.    Z S B ^ ^ ^ U Z Z Z Z Z Z Z Z Z Z Z Z Z Z M 6 O O.+.      0.w.                  ",
"          X.v.X.  Z Z P ^ ^ ^ S Z Z Z Z Z Z Z Z Z Z Z Z Z Z B 6 6   e.7.    %.k.%.                  ",
"            g.  9 w w ^ Y ^ M Z Z Z Z Z Z Z Z Z Z Z Z Z Z V 6 6 O ..X.      5.5.                    ",
"            u.2 w w K ^ ^ $ Z Z Z Z Z Z Z Z Z Z Z Z Z m V 6 6 O             9.                      ",
"            y.w w w ^ ^ 9 q M Z Z Z Z Z Z Z Z Z Z Z V q 6 6 %     =.q.]                             ",
"          k.L w w 5 ^ Z q q q Z Z Z Z Z Z Z Z Z Z Z 0 6 6 %                 9.                      ",
"          j.M | | | Y w q q q q Z Z Z Z S Z Z Z V 1 6 6 %                   q.                      ",
"          k.  | | | | M w q q q 8 Z Z Z Z Z Z Z * 8 6 5 g.X.      +.]       @.                      ",
"          h.h.n | | | | * q q w q < Z Z Z Z Z & 6 6 @ y w.X.k...X.v.'                               ",
"            ] r.$ | | | | 5 q q q q < Z Z Z $ 6 6 ; t s r     a.n.%.                                ",
"                @.9 | | | | 0 q q q q M Z % 6 6 + J F t y :     +.                                  ",
"                    I | | | | q q q q q * 6 6     > g g d k o                                       ",
"                      [ | | | | q q 1 6 1 6         v j g y y %                                     ",
"                    %.O.} | | | { 6 6 6 O             y g h D y                                     ",
"                    y.5.e.| | Y 0 5 ) b.6.              y g f y a                                   ",
"                    l.                f. .              e y h W y y                                 ",
"                  X.t.                u.:.                % p g z $.u                               ",
"                  %.y.                f.            6.0.#. .3 $.` y y -                             ",
"                    j.              8.0.            4.&.&.6.d.( f g a H o                           ",
"              X.] -.r.              4.p.>.          0.$.:.      v D g y y 4                         ",
"                                     .v.0.,.  ` 2.h.m.&.          y g g E y                         ",
"                                      6.#.6.0._      .              y g g y i                       ",
"                                                                      y g E y r                     ",
"                                                                      % y g s y u                   ",
"                                                                        o c W p y %                 ",
"                                                                          # p g p T %               ",
"                                                                            l H g y y 4             ",
"                                                                              t f g E X O           ",
"                                                                                y g X 0 6 7         ",
"                                                                                . 8 Z Z 6           ",
"                                                                                  * 6 S 7           ",
"                                                                                    7               ",
"                                                                                                    "
};
