/* XPM */
static char *_436185ecffa4bf8cf7e9683bca4dab6VJYO26qKZSuvXos2[] = {
/* columns rows colors chars-per-pixel */
"50 50 239 2 ",
"   c None",
".  c #030201",
"X  c #0B0000",
"o  c #020309",
"O  c #060B02",
"+  c #140000",
"@  c #1B0000",
"#  c #100A00",
"$  c #14140D",
"%  c #000316",
"&  c #181516",
"*  c #0D1B1B",
"=  c #240000",
"-  c #2B0000",
";  c #330300",
":  c #2B1508",
">  c #3A1907",
",  c #24181A",
"<  c #381819",
"1  c #210F15",
"2  c #30221A",
"3  c #000626",
"4  c #000A37",
"5  c #241D24",
"6  c #0F2632",
"7  c #332320",
"8  c #2C363A",
"9  c #5B0A0A",
"0  c #471609",
"q  c #58130C",
"w  c #451715",
"e  c #581818",
"r  c #4E0D13",
"t  c #6B090A",
"y  c #651109",
"u  c #6C0E16",
"i  c #740E18",
"p  c #6B131B",
"a  c #671816",
"s  c #791318",
"d  c #740C0B",
"f  c #4A2516",
"g  c #5B2419",
"h  c #582D15",
"j  c #68271C",
"k  c #752B1F",
"l  c #4A1921",
"z  c #5C1C23",
"x  c #671922",
"c  c #7A1C24",
"v  c #51302D",
"b  c #662926",
"n  c #782526",
"m  c #6C4D1D",
"M  c #744B1E",
"N  c #784A18",
"B  c #7E400E",
"V  c #5F4939",
"C  c #6D4B26",
"Z  c #6C452E",
"A  c #6C4B2C",
"S  c #644C29",
"D  c #744B24",
"F  c #7A4B24",
"G  c #734B2B",
"H  c #7C4A29",
"J  c #6B512C",
"K  c #6B5124",
"L  c #74522C",
"P  c #7A532D",
"I  c #765426",
"U  c #6B4D34",
"Y  c #694C36",
"T  c #714C34",
"R  c #724E3E",
"E  c #794A37",
"W  c #6C5233",
"Q  c #67533A",
"!  c #725333",
"~  c #7A5439",
"^  c #44653A",
"/  c #736328",
"(  c #0F3A5D",
")  c #233C5A",
"_  c #0E3876",
"`  c #2C4D4F",
"'  c #3D6351",
"]  c #184A75",
"[  c #295F78",
"{  c #3B5A79",
"}  c #326679",
"|  c #6E5949",
" . c #676559",
".. c #4B5A68",
"X. c #4C5E68",
"o. c #71797B",
"O. c #506873",
"+. c #891619",
"@. c #842019",
"#. c #931720",
"$. c #852A2F",
"%. c #834C1B",
"&. c #82551C",
"*. c #884C25",
"=. c #855225",
"-. c #855537",
";. c #815546",
":. c #987254",
">. c #916D54",
",. c #A86944",
"<. c #A76B54",
"1. c #838078",
"2. c #BB9D7A",
"3. c #BC946F",
"4. c #BDA27E",
"5. c #A1B97D",
"6. c #CC9D6D",
"7. c #CC9765",
"8. c #D49D6C",
"9. c #D59A68",
"0. c #CC9D74",
"q. c #C49D7C",
"w. c #C89C76",
"e. c #D59D77",
"r. c #E49279",
"t. c #CBA16D",
"y. c #D5A36D",
"u. c #CDA273",
"i. c #C5A27C",
"p. c #CBA47B",
"a. c #C3AA7B",
"s. c #CAA878",
"d. c #D4A373",
"f. c #D3A47B",
"g. c #D8A777",
"h. c #E4A879",
"j. c #16559A",
"k. c #1A4F8A",
"l. c #2B548F",
"z. c #186984",
"x. c #366284",
"c. c #1D5AB2",
"v. c #1268AE",
"b. c #2266B0",
"n. c #5473A0",
"m. c #4E6C85",
"M. c #145FC2",
"N. c #0866C5",
"B. c #1B6AC7",
"V. c #0465D5",
"C. c #0C74D0",
"Z. c #759CA7",
"A. c #869B8B",
"S. c #A89E9E",
"D. c #9FB59D",
"F. c #99A49E",
"G. c #BEA483",
"H. c #B9A689",
"J. c #A9BC85",
"K. c #B9A898",
"L. c #A9B08F",
"P. c #9AAEB3",
"I. c #A7AEAB",
"U. c #A7AAB2",
"Y. c #B1B9A0",
"T. c #CA9C86",
"R. c #D79C86",
"E. c #C69D90",
"W. c #C4A484",
"Q. c #CAA383",
"!. c #C4AA86",
"~. c #CCA983",
"^. c #CBA38B",
"/. c #C4AB8A",
"(. c #C8A78B",
"). c #D2A38B",
"_. c #D5A784",
"`. c #C4A894",
"'. c #D3A293",
"]. c #F5BD9D",
"[. c #F7B89D",
"{. c #E7B393",
"}. c #ECBDA8",
"|. c #F5BEAC",
" X c #F0BFB2",
".X c #EE9C8F",
"XX c #B0C396",
"oX c #EBC29C",
"OX c #FCC39F",
"+X c #F5E99C",
"@X c #DAC9BD",
"#X c #ECC3A4",
"$X c #E7C5AA",
"%X c #F4C4A2",
"&X c #FCC2A3",
"*X c #FAC7AA",
"=X c #FFD8AE",
"-X c #EBC7B5",
";X c #F4C7B6",
":X c #FDD4B4",
">X c #FCD3BB",
",X c #FFDABD",
"<X c #F8DBBB",
"1X c #FEE4BC",
"2X c #FFEBBD",
"3X c #FFE6B3",
"4X c #FFF8BB",
"5X c #FFD5C2",
"6X c #FDDBC4",
"7X c #FDDCCA",
"8X c #F3D9C5",
"9X c #EADDD4",
"0X c #E8DFDD",
"qX c #F2DDCB",
"wX c #DDE9D5",
"eX c #FFE5C3",
"rX c #FFECC4",
"tX c #FEE3CB",
"yX c #FFECCC",
"uX c #F7E4C5",
"iX c #FEF3C4",
"pX c #FFF2CB",
"aX c #FCF8C9",
"sX c #FFEDD2",
"dX c #F9E9D5",
"fX c #FFF3D3",
"gX c #FEF9D4",
"hX c #FFF3DB",
"jX c #FFFADB",
"kX c #E4E7DD",
"lX c #E1DFE7",
"zX c #E9E3E6",
"xX c #F5E7E2",
"cX c #FFF7E3",
"vX c #FFFBE3",
"bX c #FDFBEB",
"nX c #FFFCFC",
"mX c #F8FBF8",
"MX c #E8E7F2",
/* pixels */
"                                                                                                    ",
"                                                                                                    ",
"                                                                                                    ",
"                                                                                                    ",
"                                          R.e._.q.G ! L G Z                                         ",
"                                    `.^.w.f.e.6.f.=.u.p.p.Q.! W V                                   ",
"                                K.K.dXyXgXiXuXaXQ.q.W.yXiX2XiXiX!.S W                               ",
"                              K.hXbXvXjXgXgXaXaXyX!.yXrXiXaXiXiXpXiXi.C                             ",
"                            K.fXcXvXjXfXfXpXrXpXrXrX2XiXiXgXpXyXpXrX2X0.!                           ",
"                          H.pXjXcXcXG.!.G.!./.4.a.a.iXiXrXeXfXrXiX4Xg.7._.Y                         ",
"                          H.pXgX`.H.iXiXrXpXuXpXiXw.6.f.a.a.a.s.g.7.9.h.0.G                         ",
"                        H.pXpX!.sXpX4.G.fXfXfXfXeXrXp.p.eXiX1X4Xt.g.y.8.g.f.W                       ",
"                        /.rX4.aXyX`.hXhXdXhXyXeXyXeXp.rXyXyXhXhXhXfXD d.6.g.C                       ",
"                        /.K aXiXW.sXcXcXcXsXeX~.p.p.~.i.yXfXcXcXxXbXyXI y.d.L                       ",
"                        J iX3Xm pXvXcXvXeX~._.d.t.u.t.u.f.w.sXcXvXbXgXL t.6.P                       ",
"                      `.S 2Xs.I yXvXvXpXT D M 2XD iXI M F H T.yXvXvXjXrXN g.C T                     ",
"                      Y fX2XM p.sXcXpXJ ,X,X6XsX<XuXiX1X:X6XZ W.gXjXyX1X=.8.F T                     ",
"                      Q W.rXI i.sXfX4.L 6X5XtXtXdX8XyX6XtX5X7XA !.2Xs.f.9.%.F W                     ",
"                      L w._.@ /.~.1XP :X7X7X:X2X<XtXuXqX>X7X>XeXI f.t.y.y.%.F G                     ",
"                      K p.L + G.f.g.G G.$X}.%X1X<X8X7X5X;X X}.T.3.M g.t.g.N -.C                     ",
"                      ~ (.A @ (.6.D Z Z E.q.%XoX,X7X>X*X XE.E.Z G M N g.u.= :.;.                    ",
"                      Q Y @ H = f.P ^.R Z U i.#X#X#X*X].R.E Z Z Q.s.N t.M = ,XT |                   ",
"                      X qX= *.*.= Q.T ~ T @ J K %X&X}.H ~ @ ~ ~ P H s.D - ;X>X@ h                   ",
"                      . E.;X*.*.0.= T + X S.>.oXOX].%X}.>.K.+ + (.A Q.= ;.}.).= p.C                 ",
"                      K.+ :.P H e.'.nX..6 6 (.].&X&X%X$X`., 6 O.bX| @ R ;.<.= 0.d.d.A               ",
"                      `.hX@ @ yXe.T.nX..m...$X*X[._.}.-X@XX.} { mXE.@ sX@ @ {.8.y.t.i.Y             ",
"                    `.sXfXyX@ 1X_.e. XmXU.U.6X:X5X'. X8X9XI.I.nX XR.~.rX= F 9.e.N d.!.`.            ",
"                    G.gXyX2.fX~ 0.e.%X X0X0X6X6X5XR. X7XdX9X0X-X*Xe.p.m ~.f.h.8.F G + +             ",
"                  H.yXeX!.iX2XD 2X_.%X,X>X7X5X5X'.).p.}.6XtX8XtX*XR.1XI N y.r.e.p.@                 ",
"                  Q ! i.Q.2X2Xp.C yXi.#X:X:X(.T.sXtXeXp.~.,XoX#Xq.yXI m &.%.9.f.^.+                 ",
"                      ! p.2XeXi.W U yX/.i.u.rXiXw.e.u.2X1XQ._.s.fXW = C %.B %.e.(.X                 ",
"                      W g.8.rX(.@ + @ U Q.2Xu.u.=X=X=Xu._.rXw.D @ ; f - %.*.N D /..                 ",
"                      W f.h.T.= - b b = R ~.M 2XeXeX2XiXG ).E - q j q 0 ; H N D Q .                 ",
"                        F g.= 0 e q 9 e = @ J J (.G.!.S R = @ j k t 9 9 j - H L X                   ",
"                        A T.0 f b b y y r w + X . . . X + < f 0 y t t n f @ > J X                   ",
"                          R = - = = n q g @ 9XzXo . O kXzX. # @ e n n ; - (.:.@                     ",
"                            ~ R.R..X= @ @ S.mXmX0X$ F.mXmXMX$ $ X @ @ '.<..Xr.-.                    ",
"                          X ).].&X|.E.: X & S.mX. . O P.nX& & & o o @ = <.R.r.,.|                   ",
"                          + $X=X*X&X-.: X , 5 * . . o * & 1 7 : , 7 f e - <.,.,.~                   ",
"                          @ (.1X|.R.~ +  ., lXMXo o . wXdX: | 2 v < a a - = ,.<.@                   ",
"                        w e @ W.).T.@ X  .I.mXmXzX. J.aX4X+X/ # + = x t p ; = @                     ",
"                        r a g = = = . O . . D.bX. O O XX5.XXJ.O 7 l i s i a g >                     ",
"                        y d y a e w >.A.D.D.5.O # . P.[ [ [ } Z.o.< p x i c u j <                   ",
"                      > s +.i a p < ) ` ' ' ^ XXJ.Y.[ v.C.v.v.] ) < x p p c +.u e                   ",
"                      w s #.s x z + % ) ] k.[ ` o % l.B.V.C.j.( o . @ x e n @.y w                   ",
"                      w $.s c x @ + o 3 4 k._ 4 3 _ c.V.V.N._ 4       @ = = a a <                   ",
"                      w z = @ +         % { x.4 n.l.M.V.V.N.j.              + @ X                   ",
"                      + #                   3 3 3 l.c.B.B.b.l.                                      ",
"                                                                                                    ",
"                                                                                                    "
};
