/* XPM */
static char *b5e7626fbf6f4374ecd65161a0eb38afTd3cPMubp5XWHynh[] = {
/* columns rows colors chars-per-pixel */
"50 50 29 1 ",
"  c #271A15",
". c #291B16",
"X c #301C1B",
"o c #371E20",
"O c #391F21",
"+ c #3D2022",
"@ c #42231E",
"# c #412323",
"$ c #4B2524",
"% c #572A26",
"& c #592B27",
"* c #5D2C28",
"= c #583125",
"- c #622F29",
"; c #61332B",
": c #67332B",
"> c #733A2F",
", c #6B402D",
"< c #73442F",
"1 c #744333",
"2 c #7C4735",
"3 c #854535",
"4 c #884735",
"5 c #8A4836",
"6 c #865B3F",
"7 c #8F5D45",
"8 c #A45B40",
"9 c #BF6F4A",
"0 c #E69C69",
/* pixels */
"                                .     .     .     ",
"9999999999999999O  :99999999999999999990 999999999",
"555555555555555590 -55555555555555554559.545555545",
"555555555555555559 -55555555555555555559 555555555",
"555555555555555559 -55555555555555555559 455555555",
"5555555555-5555559 -555555-3335555555559.555555555",
"5555555555*5555559 -55****55555555555559 555555555",
"55555555555**55559 +**5555*5555555555559 455555555",
"555553555**OO*5559 #55555555555555555559.555355555",
"5555555**O   O*5*O -55555555555555555549 **4-55555",
"555555*OOO    O*O  -55555555555555555>*O OO*555555",
"******OOOOO    O   +*****************$O.  .O******",
"     122;$$OXX@<<<=<<<<<<<<X  ,<<<<<<<<<<<<<<<<<<<",
"OOOO %5595*O$*5555*555555550OO%5555555554555555555",
"***OO%555***>5555*555555555900%5555555555555555555",
"****O%5555*5>5555*555555555599%5555555555555555555",
"****O%5555555555*5555555555559%555*555555555555555",
"****O%55555555555*555555555559%5555*5555*5*5555555",
"****O%55555555555*555555555559%55555*55*5*55555555",
"****O%555555555-55555555555359%55555-4*555-3555555",
"****O%5555555555555555555555*5%555555>555555555555",
"****O%555555555555555555555559%555555>555555555555",
"****O%555555555555555555555559%555555>555555555555",
"****O O**555555555555OO5555559oO*555*5545555555555",
"*****. OO***********O  *******  O***O*************",
"*****+                           .         .   .  ",
"99999999995999990O 9999999999999999997.  999999999",
"555555555555555559 -5555555555555555480O.455545555",
"5555555**555555559 -5555555555555555580O 555555555",
"555555*55555555559 -55555555555555555590 4555555**",
"5555-3-55555555559 -5555*555555555555559.5553-++OO",
"555*55*55555555559 -555*5555555555555549 5555***OO",
"55*5555*5555555559 -555*5555553555555559 5555555**",
"5*5555555555555559 -5555555555-555555559 555555555",
"5555555555555555*O -5555555555555*555559 555555555",
"5555555555555555O  +5555555555555555555O 555555555",
"****************O  .*******************O *********",
"      X<<<@<<<<<<<<<<<<<<<<<6X X<<<<<<<<<<<<<<<<<<",
"OOOO  O*555*555555555555555590o5555555555555555555",
"995*Oo*5555*555555555555555559%5555555555555555555",
"5595O%555555>55555555555555559%5555555555555555555",
"5559O%55555*5555555555*5555559%55555555555555555*5",
"55559%555555>55555555*55555559%555555555555555555*",
"55559%55555*555555555*55555559%555*555555555555555",
"55559%5553&&>5555555-555555559%555-355555555555555",
"55559%5555*O$55555555555555559%55555*5555555555555",
"55559%555*5*$55555555555555559o***5555555555555555",
"55559%555555>*5555555555555559 O*55555555555555555",
"*****o****O*******************  O*****************",
"                                                  "
};
